<mxfile host="app.diagrams.net" modified="2021-01-29T06:34:36.156Z" agent="5.0 (Macintosh; Intel Mac OS X 10_15_7) AppleWebKit/537.36 (KHTML, like Gecko) Chrome/87.0.4280.88 Safari/537.36" etag="pLxFuYsFQZtVW4jCIlum" version="13.10.0" type="github">
  <diagram id="dzCjaa1H0auTWYRWZh3I" name="Page-1">
    <mxGraphModel dx="1298" dy="843" grid="1" gridSize="10" guides="1" tooltips="1" connect="1" arrows="1" fold="1" page="1" pageScale="1" pageWidth="827" pageHeight="1169" math="0" shadow="0">
      <root>
        <mxCell id="0" />
        <mxCell id="1" parent="0" />
        <mxCell id="0jGnr8j1GbMgSdXvuTEG-1" value="网达接口" style="ellipse;whiteSpace=wrap;html=1;aspect=fixed;fillColor=#ffe6cc;strokeColor=#d79b00;" vertex="1" parent="1">
          <mxGeometry x="190" y="295" width="80" height="80" as="geometry" />
        </mxCell>
        <mxCell id="0jGnr8j1GbMgSdXvuTEG-3" value="网达VPN" style="edgeStyle=orthogonalEdgeStyle;rounded=0;orthogonalLoop=1;jettySize=auto;html=1;entryX=1;entryY=0.5;entryDx=0;entryDy=0;" edge="1" parent="1" source="0jGnr8j1GbMgSdXvuTEG-2" target="0jGnr8j1GbMgSdXvuTEG-1">
          <mxGeometry relative="1" as="geometry" />
        </mxCell>
        <mxCell id="0jGnr8j1GbMgSdXvuTEG-2" value="内网nginx" style="shape=hexagon;perimeter=hexagonPerimeter2;whiteSpace=wrap;html=1;fixedSize=1;fillColor=#dae8fc;strokeColor=#6c8ebf;" vertex="1" parent="1">
          <mxGeometry x="360" y="300" width="90" height="70" as="geometry" />
        </mxCell>
        <mxCell id="0jGnr8j1GbMgSdXvuTEG-10" style="edgeStyle=orthogonalEdgeStyle;rounded=0;orthogonalLoop=1;jettySize=auto;html=1;entryX=0.5;entryY=1;entryDx=0;entryDy=0;" edge="1" parent="1" source="0jGnr8j1GbMgSdXvuTEG-5" target="0jGnr8j1GbMgSdXvuTEG-2">
          <mxGeometry relative="1" as="geometry" />
        </mxCell>
        <mxCell id="0jGnr8j1GbMgSdXvuTEG-5" value="frp映射" style="shape=hexagon;perimeter=hexagonPerimeter2;whiteSpace=wrap;html=1;fixedSize=1;fillColor=#dae8fc;strokeColor=#6c8ebf;" vertex="1" parent="1">
          <mxGeometry x="270" y="440" width="90" height="70" as="geometry" />
        </mxCell>
        <mxCell id="0jGnr8j1GbMgSdXvuTEG-9" style="edgeStyle=orthogonalEdgeStyle;rounded=0;orthogonalLoop=1;jettySize=auto;html=1;entryX=1;entryY=0.5;entryDx=0;entryDy=0;" edge="1" parent="1" source="0jGnr8j1GbMgSdXvuTEG-6" target="0jGnr8j1GbMgSdXvuTEG-5">
          <mxGeometry relative="1" as="geometry" />
        </mxCell>
        <mxCell id="0jGnr8j1GbMgSdXvuTEG-6" value="阿里云nginx" style="shape=hexagon;perimeter=hexagonPerimeter2;whiteSpace=wrap;html=1;fixedSize=1;fillColor=#dae8fc;strokeColor=#6c8ebf;" vertex="1" parent="1">
          <mxGeometry x="440" y="440" width="90" height="70" as="geometry" />
        </mxCell>
        <mxCell id="0jGnr8j1GbMgSdXvuTEG-8" style="edgeStyle=orthogonalEdgeStyle;rounded=0;orthogonalLoop=1;jettySize=auto;html=1;entryX=1;entryY=0.5;entryDx=0;entryDy=0;" edge="1" parent="1" source="0jGnr8j1GbMgSdXvuTEG-7" target="0jGnr8j1GbMgSdXvuTEG-6">
          <mxGeometry relative="1" as="geometry" />
        </mxCell>
        <mxCell id="0jGnr8j1GbMgSdXvuTEG-7" value="ingress" style="rounded=0;whiteSpace=wrap;html=1;fillColor=#dae8fc;strokeColor=#6c8ebf;" vertex="1" parent="1">
          <mxGeometry x="580" y="445" width="60" height="60" as="geometry" />
        </mxCell>
      </root>
    </mxGraphModel>
  </diagram>
</mxfile>
